<svg width="38" height="40" viewBox="0 0 38 40" fill="none" xmlns="http://www.w3.org/2000/svg">
<g filter="url(#filter0_d_1_168)">
<path fill-rule="evenodd" clip-rule="evenodd" d="M10.4753 24.6289L17.6721 17.807V14.4335H18.7966V17.4321H25.9934L25.6936 14.2086C25.6186 12.9341 25.9634 11.9896 28.8422 11.5098L29.0671 12.6343C28.4423 12.6593 27.1629 12.9941 27.043 13.5339C26.923 14.0736 27.7426 21.1055 28.1675 24.554L27.043 25.0038L26.2183 19.0064L19.9211 24.8538L19.4713 23.7293L24.9439 18.5566H18.7966V23.8793V26.1283H9.42578L10.4753 24.6289ZM17.6721 19.4562V23.8793V25.1537H11.4499L17.6721 19.4562Z" fill="#4878A6" stroke="#0E1821" stroke-width="0.480098" stroke-linecap="round" stroke-linejoin="round"/>
<circle cx="10.101" cy="25.9038" r="5.38245" stroke="#0E1821" stroke-width="0.480098"/>
<path d="M15.4246 25.9037C15.4246 28.8433 13.0415 31.2263 10.1019 31.2263C7.16232 31.2263 4.7793 28.8433 4.7793 25.9037C4.7793 22.9641 7.16232 20.5811 10.1019 20.5811C13.0415 20.5811 15.4246 22.9641 15.4246 25.9037ZM6.20978 25.9037C6.20978 28.0533 7.95236 29.7958 10.1019 29.7958C12.2515 29.7958 13.9941 28.0533 13.9941 25.9037C13.9941 23.7541 12.2515 22.0115 10.1019 22.0115C7.95236 22.0115 6.20978 23.7541 6.20978 25.9037Z" fill="#0E1821"/>
<circle cx="10.101" cy="25.9038" r="5.38245" stroke="#0E1821" stroke-width="0.480098"/>
<circle cx="10.1002" cy="25.9039" r="3.73319" stroke="#0E1821" stroke-width="0.480098"/>
<circle cx="10.1016" cy="25.9034" r="1.33425" fill="#F15152" stroke="#0E1821" stroke-width="0.480098"/>
<path d="M33.2664 25.9037C33.2664 28.8433 30.8833 31.2263 27.9437 31.2263C25.0041 31.2263 22.6211 28.8433 22.6211 25.9037C22.6211 22.9641 25.0041 20.5811 27.9437 20.5811C30.8833 20.5811 33.2664 22.9641 33.2664 25.9037ZM24.0516 25.9037C24.0516 28.0533 25.7942 29.7958 27.9437 29.7958C30.0933 29.7958 31.8359 28.0533 31.8359 25.9037C31.8359 23.7541 30.0933 22.0115 27.9437 22.0115C25.7942 22.0115 24.0516 23.7541 24.0516 25.9037Z" fill="#0E1821"/>
<circle cx="27.9428" cy="25.9038" r="5.38245" stroke="#0E1821" stroke-width="0.480098"/>
<circle cx="27.9439" cy="25.9039" r="3.73319" stroke="#0E1821" stroke-width="0.480098"/>
<circle cx="27.9434" cy="25.9034" r="1.33425" fill="#F15152" stroke="#0E1821" stroke-width="0.480098"/>
<circle cx="18.2729" cy="25.3793" r="1.85902" fill="#2A5275" stroke="#0E1821" stroke-width="0.480098"/>
<line x1="18.2831" y1="25.3895" x2="18.2831" y2="28.6679" stroke="#0E1821" stroke-width="0.320065" stroke-linecap="round"/>
<line x1="18.9318" y1="28.618" x2="17.6127" y2="28.618" stroke="#0E1821" stroke-width="0.480098" stroke-linecap="round"/>
<circle cx="29.9681" cy="11.7357" r="1.25928" fill="#F15152" stroke="#0E1821" stroke-width="0.480098"/>
<path d="M8.67773 9.78613V14.9631C8.67773 15.5818 9.17928 16.0833 9.79796 16.0833H17.8237" stroke="#0E1821" stroke-width="0.480098"/>
<circle cx="22.7706" cy="6.03725" r="5.15755" fill="white" stroke="#0E1821" stroke-width="0.480098"/>
<path d="M21.5802 2.46062C21.5948 2.41108 21.6252 2.36759 21.6667 2.33666C21.7082 2.30573 21.7587 2.28903 21.8105 2.28906H23.7295C23.7675 2.28909 23.805 2.29811 23.8388 2.31537C23.8726 2.33263 23.9018 2.35764 23.924 2.38834C23.9462 2.41905 23.9608 2.45456 23.9665 2.49197C23.9722 2.52938 23.9689 2.56761 23.9569 2.60351L23.103 5.15637H24.9289C24.9738 5.15634 25.0179 5.16887 25.056 5.19254C25.0941 5.21622 25.1248 5.25007 25.1445 5.29026C25.1643 5.33045 25.1723 5.37536 25.1677 5.41987C25.1631 5.46438 25.146 5.5067 25.1184 5.54202L21.7601 9.84298C21.7257 9.88725 21.6768 9.91808 21.6219 9.9301C21.567 9.94211 21.5096 9.93454 21.4598 9.90871C21.4099 9.88288 21.3707 9.84043 21.3491 9.78876C21.3274 9.7371 21.3247 9.6795 21.3413 9.62602L22.2053 6.82896H20.6111C20.5738 6.82898 20.537 6.82034 20.5037 6.80373C20.4703 6.78711 20.4413 6.76298 20.419 6.73324C20.3966 6.70351 20.3815 6.66899 20.3749 6.63243C20.3683 6.59587 20.3703 6.55828 20.3808 6.52264L21.5802 2.46062ZM21.9899 2.76695L20.9316 6.35108H22.5301C22.5677 6.35107 22.6047 6.35984 22.6382 6.37668C22.6717 6.39352 22.7008 6.41796 22.7231 6.44804C22.7454 6.47811 22.7603 6.51298 22.7666 6.54985C22.773 6.58671 22.7705 6.62453 22.7595 6.66027L22.1847 8.52067L24.4386 5.63425H22.77C22.732 5.63422 22.6946 5.62521 22.6608 5.60795C22.627 5.59069 22.5978 5.56568 22.5756 5.53497C22.5534 5.50427 22.5388 5.46875 22.5331 5.43134C22.5273 5.39393 22.5306 5.35571 22.5426 5.3198L23.3966 2.76695H21.9899Z" fill="#F15152"/>
<path d="M8.01739 8.82696H9.3365V9.45622C9.3365 9.58879 9.22902 9.69627 9.09645 9.69627H8.25744C8.12487 9.69627 8.01739 9.58879 8.01739 9.45622V8.82696Z" fill="#F15152" stroke="#0E1821" stroke-width="0.480098"/>
<path d="M7.26739 6.72735H10.0858V8.55607C10.0858 8.68865 9.97836 8.79612 9.84578 8.79612H7.50744C7.37487 8.79612 7.26739 8.68865 7.26739 8.55607V6.72735Z" fill="#F15152" stroke="#0E1821" stroke-width="0.480098"/>
<line x1="7.83808" y1="6.39765" x2="7.83808" y2="5.52834" stroke="#0E1821" stroke-width="0.480098" stroke-linecap="round"/>
<line x1="9.48651" y1="6.39765" x2="9.48651" y2="5.52834" stroke="#0E1821" stroke-width="0.480098" stroke-linecap="round"/>
<path d="M21.1968 14.3586H15.6493C15.0495 14.2837 14.9173 14.0942 14.7497 13.7589C14.5998 13.4591 14.6747 12.7844 14.8247 12.4845C15.0052 12.1234 15.4244 11.8764 15.7243 11.8098C16.399 11.6599 17.1486 11.8098 17.7484 12.1097C18.2225 12.3467 18.5988 12.9781 19.0228 13.0842C19.3227 13.1592 21.1219 13.1592 21.4217 13.3091C21.7216 13.459 21.7966 14.1587 21.1968 14.3586Z" fill="white" stroke="#0E1821" stroke-width="0.480098" stroke-linecap="round" stroke-linejoin="round"/>
</g>
<defs>
<filter id="filter0_d_1_168" x="-1" y="0" width="40" height="40" filterUnits="userSpaceOnUse" color-interpolation-filters="sRGB">
<feFlood flood-opacity="0" result="BackgroundImageFix"/>
<feColorMatrix in="SourceAlpha" type="matrix" values="0 0 0 0 0 0 0 0 0 0 0 0 0 0 0 0 0 0 127 0" result="hardAlpha"/>
<feOffset dy="4"/>
<feGaussianBlur stdDeviation="2"/>
<feComposite in2="hardAlpha" operator="out"/>
<feColorMatrix type="matrix" values="0 0 0 0 0 0 0 0 0 0 0 0 0 0 0 0 0 0 0.25 0"/>
<feBlend mode="normal" in2="BackgroundImageFix" result="effect1_dropShadow_1_168"/>
<feBlend mode="normal" in="SourceGraphic" in2="effect1_dropShadow_1_168" result="shape"/>
</filter>
</defs>
</svg>
