<svg width="48" height="48" viewBox="0 0 48 48" fill="none" xmlns="http://www.w3.org/2000/svg">
<path d="M32.1603 17.0002C31.1002 15.9374 29.6951 15.2887 28.1986 15.1713C26.7021 15.054 25.213 15.4756 24.0003 16.3602C22.7279 15.4138 21.1443 14.9847 19.5682 15.1592C17.9921 15.3337 16.5407 16.0989 15.5062 17.3008C14.4718 18.5026 13.9311 20.0517 13.9931 21.6362C14.0551 23.2207 14.7151 24.7228 15.8403 25.8402L22.0503 32.0602C22.5703 32.5719 23.2707 32.8588 24.0003 32.8588C24.7299 32.8588 25.4303 32.5719 25.9503 32.0602L32.1603 25.8402C33.3279 24.6654 33.9832 23.0764 33.9832 21.4202C33.9832 19.7639 33.3279 18.1749 32.1603 17.0002Z" fill="#F15152"/>
<path d="M4 1H44V-1H4V1ZM47 4V44H49V4H47ZM44 47H4V49H44V47ZM1 44V4H-1V44H1ZM4 47C2.34315 47 1 45.6569 1 44H-1C-1 46.7614 1.23858 49 4 49V47ZM47 44C47 45.6569 45.6569 47 44 47V49C46.7614 49 49 46.7614 49 44H47ZM44 1C45.6569 1 47 2.34315 47 4H49C49 1.23858 46.7614 -1 44 -1V1ZM4 -1C1.23858 -1 -1 1.23858 -1 4H1C1 2.34315 2.34315 1 4 1V-1Z" fill="#C8CACB"/>
</svg>
